<mxfile host="Electron" modified="2024-01-08T16:50:34.720Z" agent="Mozilla/5.0 (Windows NT 10.0; Win64; x64) AppleWebKit/537.36 (KHTML, like Gecko) draw.io/22.1.16 Chrome/120.0.6099.109 Electron/28.1.0 Safari/537.36" etag="ktOGbqMkM_wrpvh3GYNT" version="22.1.16" type="device">
  <diagram name="PÃ¡gina-1" id="tovH2WEb_pS8LD7zi4bg">
    <mxGraphModel dx="1745" dy="584" grid="1" gridSize="10" guides="1" tooltips="1" connect="1" arrows="1" fold="1" page="1" pageScale="1" pageWidth="827" pageHeight="1169" math="0" shadow="0">
      <root>
        <mxCell id="0" />
        <mxCell id="1" parent="0" />
        <mxCell id="vCcGP-a8CtEKPSDxrrIj-22" style="edgeStyle=orthogonalEdgeStyle;rounded=0;orthogonalLoop=1;jettySize=auto;html=1;exitX=0;exitY=0.75;exitDx=0;exitDy=0;exitPerimeter=0;endArrow=none;endFill=0;strokeColor=#575757;" edge="1" parent="1" source="vCcGP-a8CtEKPSDxrrIj-1">
          <mxGeometry relative="1" as="geometry">
            <mxPoint x="110" y="210" as="targetPoint" />
          </mxGeometry>
        </mxCell>
        <mxCell id="vCcGP-a8CtEKPSDxrrIj-1" value="" style="verticalLabelPosition=bottom;shadow=0;dashed=0;align=center;html=1;verticalAlign=top;shape=mxgraph.electrical.logic_gates.d_type_flip-flop;" vertex="1" parent="1">
          <mxGeometry x="120" y="120" width="100" height="80" as="geometry" />
        </mxCell>
        <mxCell id="vCcGP-a8CtEKPSDxrrIj-17" style="edgeStyle=orthogonalEdgeStyle;rounded=0;orthogonalLoop=1;jettySize=auto;html=1;exitX=0;exitY=0.25;exitDx=0;exitDy=0;exitPerimeter=0;endArrow=none;endFill=0;" edge="1" parent="1" source="vCcGP-a8CtEKPSDxrrIj-3">
          <mxGeometry relative="1" as="geometry">
            <mxPoint x="290" y="140" as="targetPoint" />
          </mxGeometry>
        </mxCell>
        <mxCell id="vCcGP-a8CtEKPSDxrrIj-21" style="edgeStyle=orthogonalEdgeStyle;rounded=0;orthogonalLoop=1;jettySize=auto;html=1;exitX=0;exitY=0.75;exitDx=0;exitDy=0;exitPerimeter=0;endArrow=none;endFill=0;strokeColor=#575757;" edge="1" parent="1" source="vCcGP-a8CtEKPSDxrrIj-3">
          <mxGeometry relative="1" as="geometry">
            <mxPoint x="310" y="210" as="targetPoint" />
          </mxGeometry>
        </mxCell>
        <mxCell id="vCcGP-a8CtEKPSDxrrIj-3" value="" style="verticalLabelPosition=bottom;shadow=0;dashed=0;align=center;html=1;verticalAlign=top;shape=mxgraph.electrical.logic_gates.d_type_flip-flop;" vertex="1" parent="1">
          <mxGeometry x="320" y="120" width="100" height="80" as="geometry" />
        </mxCell>
        <mxCell id="vCcGP-a8CtEKPSDxrrIj-18" style="edgeStyle=orthogonalEdgeStyle;rounded=0;orthogonalLoop=1;jettySize=auto;html=1;exitX=0;exitY=0.25;exitDx=0;exitDy=0;exitPerimeter=0;endArrow=none;endFill=0;" edge="1" parent="1" source="vCcGP-a8CtEKPSDxrrIj-4">
          <mxGeometry relative="1" as="geometry">
            <mxPoint x="490" y="140" as="targetPoint" />
          </mxGeometry>
        </mxCell>
        <mxCell id="vCcGP-a8CtEKPSDxrrIj-4" value="" style="verticalLabelPosition=bottom;shadow=0;dashed=0;align=center;html=1;verticalAlign=top;shape=mxgraph.electrical.logic_gates.d_type_flip-flop;" vertex="1" parent="1">
          <mxGeometry x="510" y="120" width="100" height="80" as="geometry" />
        </mxCell>
        <mxCell id="vCcGP-a8CtEKPSDxrrIj-11" style="edgeStyle=orthogonalEdgeStyle;rounded=0;orthogonalLoop=1;jettySize=auto;html=1;exitX=0;exitY=0.25;exitDx=0;exitDy=0;exitPerimeter=0;endArrow=none;endFill=0;startArrow=classic;startFill=1;" edge="1" parent="1" source="vCcGP-a8CtEKPSDxrrIj-6">
          <mxGeometry relative="1" as="geometry">
            <mxPoint x="630" y="273" as="targetPoint" />
            <Array as="points">
              <mxPoint x="450" y="273" />
              <mxPoint x="630" y="273" />
            </Array>
          </mxGeometry>
        </mxCell>
        <mxCell id="vCcGP-a8CtEKPSDxrrIj-15" style="edgeStyle=orthogonalEdgeStyle;rounded=0;orthogonalLoop=1;jettySize=auto;html=1;exitX=1;exitY=0.5;exitDx=0;exitDy=0;exitPerimeter=0;entryX=0.25;entryY=0;entryDx=0;entryDy=0;" edge="1" parent="1" source="vCcGP-a8CtEKPSDxrrIj-6" target="vCcGP-a8CtEKPSDxrrIj-13">
          <mxGeometry relative="1" as="geometry" />
        </mxCell>
        <mxCell id="vCcGP-a8CtEKPSDxrrIj-6" value="" style="verticalLabelPosition=bottom;shadow=0;dashed=0;align=center;html=1;verticalAlign=top;shape=mxgraph.electrical.logic_gates.logic_gate;operation=xor;rotation=-180;" vertex="1" parent="1">
          <mxGeometry x="220" y="250" width="50" height="30" as="geometry" />
        </mxCell>
        <mxCell id="vCcGP-a8CtEKPSDxrrIj-16" style="edgeStyle=orthogonalEdgeStyle;rounded=0;orthogonalLoop=1;jettySize=auto;html=1;exitX=1;exitY=0.5;exitDx=0;exitDy=0;exitPerimeter=0;entryX=0.75;entryY=0;entryDx=0;entryDy=0;" edge="1" parent="1" source="vCcGP-a8CtEKPSDxrrIj-7" target="vCcGP-a8CtEKPSDxrrIj-13">
          <mxGeometry relative="1" as="geometry">
            <Array as="points">
              <mxPoint x="-30" y="325" />
              <mxPoint x="-30" y="133" />
            </Array>
          </mxGeometry>
        </mxCell>
        <mxCell id="vCcGP-a8CtEKPSDxrrIj-7" value="" style="verticalLabelPosition=bottom;shadow=0;dashed=0;align=center;html=1;verticalAlign=top;shape=mxgraph.electrical.logic_gates.logic_gate;operation=xor;rotation=-180;" vertex="1" parent="1">
          <mxGeometry x="420" y="310" width="50" height="30" as="geometry" />
        </mxCell>
        <mxCell id="vCcGP-a8CtEKPSDxrrIj-8" style="edgeStyle=orthogonalEdgeStyle;rounded=0;orthogonalLoop=1;jettySize=auto;html=1;exitX=1;exitY=0.25;exitDx=0;exitDy=0;exitPerimeter=0;entryX=0;entryY=0.75;entryDx=0;entryDy=0;entryPerimeter=0;" edge="1" parent="1" source="vCcGP-a8CtEKPSDxrrIj-1" target="vCcGP-a8CtEKPSDxrrIj-6">
          <mxGeometry relative="1" as="geometry" />
        </mxCell>
        <mxCell id="vCcGP-a8CtEKPSDxrrIj-9" style="edgeStyle=orthogonalEdgeStyle;rounded=0;orthogonalLoop=1;jettySize=auto;html=1;exitX=1;exitY=0.25;exitDx=0;exitDy=0;exitPerimeter=0;entryX=0;entryY=0.75;entryDx=0;entryDy=0;entryPerimeter=0;" edge="1" parent="1" source="vCcGP-a8CtEKPSDxrrIj-3" target="vCcGP-a8CtEKPSDxrrIj-7">
          <mxGeometry relative="1" as="geometry" />
        </mxCell>
        <mxCell id="vCcGP-a8CtEKPSDxrrIj-10" style="edgeStyle=orthogonalEdgeStyle;rounded=0;orthogonalLoop=1;jettySize=auto;html=1;exitX=1;exitY=0.25;exitDx=0;exitDy=0;exitPerimeter=0;entryX=0;entryY=0.25;entryDx=0;entryDy=0;entryPerimeter=0;" edge="1" parent="1" source="vCcGP-a8CtEKPSDxrrIj-4" target="vCcGP-a8CtEKPSDxrrIj-7">
          <mxGeometry relative="1" as="geometry" />
        </mxCell>
        <mxCell id="vCcGP-a8CtEKPSDxrrIj-13" value="&lt;b&gt;&lt;font style=&quot;font-size: 15px;&quot;&gt;MUX&lt;/font&gt;&lt;/b&gt;" style="verticalLabelPosition=middle;verticalAlign=top;shape=trapezoid;perimeter=trapezoidPerimeter;size=0.23;arcSize=10;flipV=1;labelPosition=center;align=center;rotation=-90;spacingBottom=0;html=1;whiteSpace=wrap;direction=east;horizontal=1;" vertex="1" parent="1">
          <mxGeometry x="-10" y="142.5" width="110" height="35" as="geometry" />
        </mxCell>
        <mxCell id="vCcGP-a8CtEKPSDxrrIj-14" style="edgeStyle=orthogonalEdgeStyle;rounded=0;orthogonalLoop=1;jettySize=auto;html=1;endArrow=none;endFill=0;" edge="1" parent="1" source="vCcGP-a8CtEKPSDxrrIj-13">
          <mxGeometry relative="1" as="geometry">
            <mxPoint x="120" y="140" as="targetPoint" />
          </mxGeometry>
        </mxCell>
        <mxCell id="vCcGP-a8CtEKPSDxrrIj-20" style="edgeStyle=orthogonalEdgeStyle;rounded=0;orthogonalLoop=1;jettySize=auto;html=1;entryX=0;entryY=0.75;entryDx=0;entryDy=0;entryPerimeter=0;endArrow=none;endFill=0;strokeColor=#575757;" edge="1" parent="1" source="vCcGP-a8CtEKPSDxrrIj-19" target="vCcGP-a8CtEKPSDxrrIj-4">
          <mxGeometry relative="1" as="geometry">
            <mxPoint x="542.7999267578125" y="213" as="targetPoint" />
            <Array as="points">
              <mxPoint x="510" y="213" />
            </Array>
          </mxGeometry>
        </mxCell>
        <mxCell id="vCcGP-a8CtEKPSDxrrIj-19" value="Clk" style="text;html=1;align=center;verticalAlign=middle;resizable=0;points=[];autosize=1;strokeColor=none;fillColor=none;" vertex="1" parent="1">
          <mxGeometry x="-150" y="198" width="40" height="30" as="geometry" />
        </mxCell>
      </root>
    </mxGraphModel>
  </diagram>
</mxfile>
